<svg width="257" height="80" viewBox="0 0 257 80" fill="none" xmlns="http://www.w3.org/2000/svg">
<g clip-path="url(#clip0_10_2)">
<path d="M43.3031 43.5252L55.4986 17.35H40.5396L35.7695 27.587L43.3031 43.5252Z" fill="#414141"/>
<path d="M0 17.35L22.7629 62.0767H37.7158L14.953 17.35H0Z" fill="#009482"/>
<path d="M88.4441 19.5247C85.1746 17.859 81.5519 17.0058 77.8827 17.0376C65.4589 17.0376 55.0537 27.4248 55.0537 39.9386C55.0537 52.4525 65.4409 62.8337 77.8827 62.8337C81.5483 62.9248 85.1787 62.0988 88.4441 60.4306V62.1188H100.868V17.3079H88.4441V19.5247ZM77.8827 48.5476C76.7594 48.5545 75.6462 48.3351 74.6096 47.9024C73.573 47.4697 72.6342 46.8326 71.8492 46.0291C71.0643 45.2256 70.4492 44.2722 70.0408 43.2258C69.6323 42.1794 69.4389 41.0614 69.472 39.9386C69.438 38.8156 69.6309 37.6973 70.039 36.6505C70.4472 35.6037 71.0622 34.65 71.8473 33.8463C72.6325 33.0427 73.5716 32.4056 74.6086 31.9732C75.6456 31.5408 76.7592 31.3219 77.8827 31.3297C82.851 31.3297 86.4015 34.9643 86.4015 39.9386C86.4015 44.9129 82.851 48.5476 77.8827 48.5476Z" fill="#009482"/>
<path d="M121.798 -3.05176e-05H107.332V62.1248H121.798V-3.05176e-05Z" fill="#009482"/>
<path d="M197.236 17.8366L191.907 36.298L186.584 17.7525H170.875L184.368 56.0871C184.368 56.1772 181.172 66.0297 176.642 78.9882L191.733 79.3426L212.76 17.8366H197.236Z" fill="#009482"/>
<path d="M234.195 17.0376C229.659 17.0233 225.222 18.3562 221.445 20.8671C217.667 23.378 214.721 26.9539 212.979 31.1414C211.236 35.329 210.777 39.9396 211.658 44.3886C212.54 48.8377 214.722 52.9249 217.929 56.132C221.136 59.3391 225.224 61.5217 229.673 62.403C234.122 63.2844 238.732 62.8248 242.92 61.0825C247.107 59.3403 250.683 56.3938 253.194 52.6167C255.705 48.8397 257.038 44.4021 257.024 39.8665C257.032 36.8662 256.448 33.8936 255.304 31.12C254.16 28.3463 252.478 25.8262 250.357 23.7046C248.235 21.583 245.715 19.9017 242.941 18.7576C240.168 17.6134 237.195 17.0289 234.195 17.0376ZM234.195 48.2772C232.528 48.2903 230.896 47.8082 229.504 46.892C228.112 45.9758 227.024 44.6669 226.377 43.1312C225.731 41.5956 225.555 39.9024 225.872 38.2666C226.189 36.6307 226.984 35.1259 228.158 33.9431C229.332 32.7602 230.83 31.9526 232.463 31.6226C234.097 31.2927 235.791 31.4554 237.332 32.09C238.873 32.7246 240.19 33.8025 241.117 35.187C242.044 36.5716 242.539 38.2003 242.539 39.8665C242.554 40.9697 242.35 42.0648 241.936 43.0877C241.523 44.1107 240.91 45.041 240.133 45.8242C239.356 46.6074 238.431 47.2277 237.411 47.6489C236.391 48.0701 235.298 48.2837 234.195 48.2772Z" fill="#009482"/>
<path d="M149.914 16.9895C148.689 16.9906 147.466 17.087 146.255 17.2779C141.893 17.8918 137.811 19.7884 134.528 22.7267C131.245 25.665 128.91 29.5126 127.818 33.7808C127.289 35.7396 127.02 37.7595 127.019 39.7885C127.02 41.5058 127.208 43.2179 127.578 44.8949C129.789 55.18 138.548 62.8217 150.016 62.8217C158.427 62.8217 163.329 60.7791 167.763 57.9435L163.239 47.8266C161.4 48.745 159.466 49.4582 157.472 49.9533C155.461 50.4043 153.403 50.606 151.344 50.5541C145.847 50.5541 142.206 46.7393 142.206 44.8769H172.13C172.507 43.2008 172.699 41.4884 172.701 39.7704C172.688 33.7314 170.283 27.9435 166.012 23.6738C161.742 19.4041 155.953 17.0006 149.914 16.9895ZM142.05 34.9643C142.23 32.8376 145.054 29.7317 149.259 29.7317C153.963 29.7317 156.625 32.5733 156.625 34.9643H142.05Z" fill="#009482"/>
</g>
<defs>
<clipPath id="clip0_10_2">
<rect width="257" height="79.3427" fill="white"/>
</clipPath>
</defs>
</svg>
