<svg width="256" height="79" viewBox="0 0 256 79" fill="none" xmlns="http://www.w3.org/2000/svg">
<g filter="url(#filter0_d_2731_58560)">
<rect x="8" y="4" width="240" height="64" rx="4" fill="white"/>
<path d="M89.7173 26V18.7273H92.4446C93.0033 18.7273 93.4721 18.8314 93.8509 19.0398C94.232 19.2481 94.5196 19.5346 94.7138 19.8991C94.9103 20.2614 95.0085 20.6733 95.0085 21.1349C95.0085 21.6013 94.9103 22.0156 94.7138 22.3778C94.5173 22.7401 94.2273 23.0253 93.8438 23.2337C93.4602 23.4396 92.9879 23.5426 92.4268 23.5426H90.6193V22.4595H92.2493C92.576 22.4595 92.8435 22.4027 93.0518 22.2891C93.2602 22.1754 93.4141 22.0192 93.5135 21.8203C93.6153 21.6214 93.6662 21.393 93.6662 21.1349C93.6662 20.8769 93.6153 20.6496 93.5135 20.4531C93.4141 20.2566 93.259 20.1039 93.0483 19.995C92.84 19.8838 92.5713 19.8281 92.2422 19.8281H91.0348V26H89.7173ZM103.851 22.3636C103.851 23.1473 103.705 23.8184 103.411 24.3771C103.12 24.9335 102.722 25.3596 102.218 25.6555C101.716 25.9515 101.147 26.0994 100.51 26.0994C99.873 26.0994 99.3025 25.9515 98.7982 25.6555C98.2963 25.3572 97.8986 24.9299 97.605 24.3736C97.3138 23.8149 97.1682 23.1449 97.1682 22.3636C97.1682 21.58 97.3138 20.91 97.605 20.3537C97.8986 19.795 98.2963 19.3677 98.7982 19.0717C99.3025 18.7758 99.873 18.6278 100.51 18.6278C101.147 18.6278 101.716 18.7758 102.218 19.0717C102.722 19.3677 103.12 19.795 103.411 20.3537C103.705 20.91 103.851 21.58 103.851 22.3636ZM102.527 22.3636C102.527 21.812 102.44 21.3468 102.268 20.968C102.097 20.5869 101.86 20.2992 101.557 20.1051C101.254 19.9086 100.905 19.8104 100.51 19.8104C100.114 19.8104 99.7653 19.9086 99.4623 20.1051C99.1592 20.2992 98.9213 20.5869 98.7485 20.968C98.578 21.3468 98.4928 21.812 98.4928 22.3636C98.4928 22.9152 98.578 23.3816 98.7485 23.7628C98.9213 24.1416 99.1592 24.4292 99.4623 24.6257C99.7653 24.8198 100.114 24.9169 100.51 24.9169C100.905 24.9169 101.254 24.8198 101.557 24.6257C101.86 24.4292 102.097 24.1416 102.268 23.7628C102.44 23.3816 102.527 22.9152 102.527 22.3636ZM107.642 26L105.589 18.7273H107.006L108.317 24.0717H108.384L109.783 18.7273H111.072L112.475 24.0753H112.539L113.849 18.7273H115.266L113.214 26H111.914L110.458 20.897H110.401L108.942 26H107.642ZM117.38 26V18.7273H122.11V19.8317H118.697V21.8061H121.865V22.9105H118.697V24.8956H122.138V26H117.38ZM124.654 26V18.7273H127.381C127.94 18.7273 128.409 18.8243 128.788 19.0185C129.169 19.2126 129.456 19.4848 129.65 19.8352C129.847 20.1832 129.945 20.5893 129.945 21.0533C129.945 21.5196 129.846 21.9245 129.647 22.2678C129.45 22.6087 129.16 22.8726 128.777 23.0597C128.393 23.2443 127.922 23.3366 127.364 23.3366H125.421V22.2429H127.186C127.513 22.2429 127.78 22.1979 127.989 22.108C128.197 22.0156 128.351 21.8819 128.45 21.7067C128.552 21.5291 128.603 21.3113 128.603 21.0533C128.603 20.7952 128.552 20.575 128.45 20.3928C128.348 20.2081 128.193 20.0684 127.985 19.9737C127.777 19.8767 127.508 19.8281 127.179 19.8281H125.972V26H124.654ZM128.411 22.7045L130.212 26H128.741L126.973 22.7045H128.411ZM132.358 26V18.7273H137.088V19.8317H133.675V21.8061H136.843V22.9105H133.675V24.8956H137.116V26H132.358ZM142.097 26H139.632V18.7273H142.146C142.868 18.7273 143.489 18.8729 144.007 19.1641C144.528 19.4529 144.928 19.8684 145.207 20.4105C145.487 20.9527 145.626 21.6013 145.626 22.3565C145.626 23.1141 145.486 23.7652 145.204 24.3097C144.925 24.8542 144.521 25.272 143.993 25.5632C143.467 25.8544 142.835 26 142.097 26ZM140.95 24.8601H142.033C142.539 24.8601 142.962 24.7678 143.3 24.5831C143.639 24.3961 143.894 24.1179 144.064 23.7486C144.234 23.3769 144.32 22.9129 144.32 22.3565C144.32 21.8002 144.234 21.3385 144.064 20.9716C143.894 20.6023 143.641 20.3265 143.308 20.1442C142.976 19.9595 142.564 19.8672 142.072 19.8672H140.95V24.8601ZM151.759 26V18.7273H154.543C155.068 18.7273 155.505 18.8101 155.853 18.9759C156.204 19.1392 156.465 19.3629 156.638 19.647C156.813 19.9311 156.901 20.2531 156.901 20.6129C156.901 20.9089 156.844 21.1622 156.73 21.3729C156.617 21.5812 156.464 21.7505 156.272 21.8807C156.08 22.0109 155.866 22.1044 155.629 22.1612V22.2322C155.888 22.2464 156.135 22.3258 156.372 22.4702C156.611 22.6122 156.806 22.8134 156.958 23.0739C157.109 23.3343 157.185 23.6491 157.185 24.0185C157.185 24.3949 157.094 24.7334 156.911 25.0341C156.729 25.3324 156.455 25.5679 156.088 25.7408C155.721 25.9136 155.259 26 154.703 26H151.759ZM153.076 24.8991H154.493C154.971 24.8991 155.316 24.808 155.526 24.6257C155.74 24.4411 155.846 24.2043 155.846 23.9155C155.846 23.7 155.793 23.5059 155.686 23.3331C155.58 23.1579 155.428 23.0206 155.232 22.9212C155.035 22.8194 154.801 22.7685 154.529 22.7685H153.076V24.8991ZM153.076 21.8203H154.379C154.607 21.8203 154.812 21.7789 154.994 21.696C155.176 21.6108 155.319 21.4912 155.424 21.3374C155.53 21.1811 155.583 20.9964 155.583 20.7834C155.583 20.5017 155.484 20.2696 155.285 20.0874C155.089 19.9051 154.796 19.8139 154.408 19.8139H153.076V21.8203ZM159.034 18.7273H160.522L162.301 21.9446H162.372L164.151 18.7273H165.639L162.993 23.2869V26H161.679V23.2869L159.034 18.7273Z" fill="#5F5F5F"/>
<g clip-path="url(#clip0_2731_58560)">
<path d="M101.479 45.8667L105.275 37.7188H100.619L99.1338 40.9054L101.479 45.8667Z" fill="#5F5F5F"/>
<path d="M88 37.7188L95.0857 51.6415H99.7403L92.6546 37.7188H88Z" fill="#009482"/>
<path d="M115.531 38.3956C114.513 37.877 113.385 37.6115 112.243 37.6214C108.376 37.6214 105.137 40.8547 105.137 44.7501C105.137 48.6455 108.37 51.877 112.243 51.877C113.384 51.9053 114.514 51.6482 115.531 51.1289V51.6544H119.398V37.7055H115.531V38.3956ZM112.243 47.4299C111.893 47.4321 111.547 47.3638 111.224 47.2291C110.901 47.0944 110.609 46.8961 110.365 46.646C110.121 46.3958 109.929 46.0991 109.802 45.7733C109.675 45.4476 109.615 45.0996 109.625 44.7501C109.614 44.4005 109.674 44.0524 109.801 43.7265C109.928 43.4007 110.12 43.1038 110.364 42.8537C110.609 42.6035 110.901 42.4052 111.224 42.2706C111.547 42.136 111.893 42.0678 112.243 42.0703C113.79 42.0703 114.895 43.2017 114.895 44.7501C114.895 46.2985 113.79 47.4299 112.243 47.4299Z" fill="#009482"/>
<path d="M125.914 32.3179H121.411V51.6563H125.914V32.3179Z" fill="#009482"/>
<path d="M149.396 37.8699L147.738 43.6167L146.081 37.8438H141.19L145.391 49.7767C145.391 49.8048 144.396 52.8717 142.986 56.9054L147.683 57.0158L154.229 37.8699H149.396Z" fill="#009482"/>
<path d="M160.901 37.6211C159.489 37.6167 158.108 38.0316 156.932 38.8132C155.756 39.5948 154.839 40.7079 154.297 42.0114C153.755 43.3149 153.612 44.7502 153.886 46.1351C154.16 47.52 154.84 48.7923 155.838 49.7906C156.836 50.7889 158.109 51.4683 159.493 51.7427C160.878 52.017 162.314 51.874 163.617 51.3316C164.921 50.7893 166.034 49.8721 166.815 48.6964C167.597 47.5206 168.012 46.1392 168.007 44.7274C168.01 43.7934 167.828 42.8682 167.472 42.0048C167.116 41.1413 166.593 40.3569 165.932 39.6965C165.272 39.036 164.487 38.5127 163.624 38.1565C162.76 37.8004 161.835 37.6184 160.901 37.6211ZM160.901 47.3455C160.382 47.3496 159.874 47.1995 159.441 46.9143C159.008 46.6291 158.669 46.2217 158.468 45.7437C158.266 45.2656 158.212 44.7386 158.31 44.2294C158.409 43.7202 158.657 43.2517 159.022 42.8835C159.387 42.5153 159.854 42.2639 160.362 42.1612C160.871 42.0585 161.398 42.1092 161.878 42.3067C162.357 42.5042 162.767 42.8398 163.056 43.2708C163.345 43.7017 163.499 44.2087 163.499 44.7274C163.503 45.0708 163.44 45.4117 163.311 45.7301C163.182 46.0486 162.992 46.3381 162.75 46.5819C162.508 46.8257 162.22 47.0188 161.902 47.1499C161.585 47.2811 161.245 47.3475 160.901 47.3455Z" fill="#009482"/>
<path d="M134.666 37.6064C134.285 37.6068 133.904 37.6368 133.527 37.6962C132.169 37.8873 130.898 38.4777 129.877 39.3923C128.855 40.307 128.128 41.5047 127.788 42.8333C127.623 43.443 127.539 44.0718 127.539 44.7034C127.539 45.238 127.598 45.7709 127.713 46.293C128.401 49.4945 131.128 51.8733 134.698 51.8733C137.316 51.8733 138.842 51.2374 140.222 50.3548L138.814 47.2055C138.241 47.4914 137.639 47.7134 137.018 47.8676C136.393 48.0079 135.752 48.0707 135.111 48.0546C133.4 48.0546 132.267 46.8671 132.267 46.2873H141.581C141.699 45.7656 141.758 45.2325 141.759 44.6978C141.755 42.8179 141.007 41.0162 139.677 39.6872C138.348 38.3581 136.546 37.6099 134.666 37.6064ZM132.218 43.2017C132.274 42.5397 133.153 41.5729 134.462 41.5729C135.926 41.5729 136.755 42.4574 136.755 43.2017H132.218Z" fill="#009482"/>
</g>
<rect x="8" y="4" width="240" height="64" rx="4" stroke="#E5E5E5" stroke-width="0.639474"/>
</g>
<defs>
<filter id="filter0_d_2731_58560" x="0.859612" y="0.26965" width="254.281" height="78.2818" filterUnits="userSpaceOnUse" color-interpolation-filters="sRGB">
<feFlood flood-opacity="0" result="BackgroundImageFix"/>
<feColorMatrix in="SourceAlpha" type="matrix" values="0 0 0 0 0 0 0 0 0 0 0 0 0 0 0 0 0 0 127 0" result="hardAlpha"/>
<feOffset dy="3.41053"/>
<feGaussianBlur stdDeviation="3.41053"/>
<feComposite in2="hardAlpha" operator="out"/>
<feColorMatrix type="matrix" values="0 0 0 0 0.356863 0 0 0 0 0.356863 0 0 0 0 0.356863 0 0 0 0.08 0"/>
<feBlend mode="normal" in2="BackgroundImageFix" result="effect1_dropShadow_2731_58560"/>
<feBlend mode="normal" in="SourceGraphic" in2="effect1_dropShadow_2731_58560" result="shape"/>
</filter>
<clipPath id="clip0_2731_58560">
<rect width="80" height="24.6981" fill="white" transform="translate(88 32.3179)"/>
</clipPath>
</defs>
</svg>
