<?xml version="1.0" encoding="UTF-8"?><svg id="Layer_2" xmlns="http://www.w3.org/2000/svg" viewBox="0 0 308.09 72.78"><defs><style>.cls-1{fill:#fff;}</style></defs><g id="Layer_1-2"><g><path class="cls-1" d="M32.47,0c-4.01,0-7.27,3.26-7.27,7.27s3.26,7.28,7.27,7.28,7.28-3.27,7.28-7.28-3.27-7.27-7.28-7.27Zm0,10.03c-1.52,0-2.75-1.24-2.75-2.76s1.24-2.75,2.75-2.75,2.76,1.24,2.76,2.75-1.24,2.76-2.76,2.76Z"/><path class="cls-1" d="M32.48,43.53c-4.01,0-7.28,3.26-7.28,7.27s3.27,7.28,7.28,7.28,7.27-3.27,7.27-7.28-3.26-7.27-7.27-7.27Zm0,10.03c-1.52,0-2.76-1.24-2.76-2.76s1.24-2.75,2.76-2.75,2.75,1.24,2.75,2.75-1.24,2.76-2.75,2.76Z"/><path class="cls-1" d="M42.65,29.04c6.47-3.09,11.32-9.03,12.93-16.19-2.2,.23-4.28,.9-6.13,1.93-1.46,3.48-3.96,6.41-7.1,8.41-.11,.07-.21,.14-.32,.2-.13,.08-.26,.15-.39,.23-.74,.43-1.51,.8-2.31,1.13-1.75,.7-3.62,1.15-5.59,1.28h0c-.19,.01-.39,.02-.58,.03-.22,.01-.44,.02-.67,.02s-.44,0-.66-.01c-.2,0-.39-.02-.59-.03-1.96-.13-3.84-.57-5.59-1.27h0c-.79-.32-1.56-.69-2.3-1.12-.09-.05-.17-.1-.25-.15-.1-.06-.2-.12-.3-.18-3.26-2.02-5.84-5.03-7.32-8.61-1.85-.99-3.91-1.64-6.09-1.85,1.6,7.17,6.45,13.11,12.93,16.2-6.46,3.09-11.32,9.03-12.93,16.19,2.19-.21,4.25-.86,6.1-1.85,1.48-3.58,4.06-6.59,7.32-8.6,.1-.06,.2-.12,.3-.19,.08-.05,.17-.1,.25-.15,.73-.43,1.51-.8,2.3-1.12h0c1.75-.7,3.62-1.15,5.59-1.28,.2-.01,.39-.02,.59-.03,.22,0,.44-.01,.66-.01s.45,0,.67,.02c.2,0,.39,.02,.58,.03h0c1.96,.13,3.84,.58,5.59,1.28,.8,.32,1.57,.7,2.31,1.12,.14,.08,.27,.16,.4,.24,.11,.06,.21,.13,.32,.2,3.14,2,5.64,4.93,7.09,8.4,1.86,1.02,3.93,1.7,6.14,1.93-1.6-7.15-6.46-13.09-12.93-16.18Z"/><path class="cls-1" d="M61.02,22.54c-.98-.5-2.09-.78-3.27-.78-4.01,0-7.27,3.26-7.27,7.27s3.26,7.28,7.27,7.28c1.17,0,2.28-.28,3.27-.78h0c2.37-1.2,4.01-3.66,4.01-6.5s-1.63-5.3-4.01-6.49Zm-3.27,9.25c-1.52,0-2.75-1.24-2.75-2.76s1.24-2.75,2.75-2.75,2.76,1.24,2.76,2.75-1.24,2.76-2.76,2.76Z"/><path class="cls-1" d="M7.27,21.76c-1.21,0-2.35,.3-3.35,.83-2.33,1.21-3.92,3.65-3.92,6.45s1.59,5.24,3.92,6.46c1,.52,2.14,.82,3.35,.82,4.01,0,7.28-3.27,7.28-7.28s-3.27-7.27-7.28-7.27Zm0,10.03c-1.52,0-2.75-1.24-2.75-2.76s1.24-2.75,2.75-2.75,2.76,1.24,2.76,2.75-1.24,2.76-2.76,2.76Z"/><path class="cls-1" d="M9.64,47.34c1.73-.18,3.38-.6,4.93-1.22h0c5.48-2.2,9.66-6.96,11.06-12.79,.22-.93,.37-1.89,.45-2.87,.03-.47,.05-.95,.05-1.42s-.02-.95-.05-1.42c-.08-.98-.23-1.94-.45-2.87-1.4-5.84-5.58-10.6-11.06-12.8h0c-1.54-.63-3.21-1.04-4.93-1.22,1.33-1.65,2.83-3.16,4.48-4.49,0,0,0,0,0,0,9.02,2.54,15.89,10.28,17.11,19.78,.03,.24,.06,.5,.08,.75,.07,.75,.11,1.5,.11,2.27s-.04,1.52-.11,2.27c-.02,.25-.05,.5-.08,.75-1.21,9.5-8.07,17.25-17.1,19.79-1.5-1.14-3.61-3.3-4.48-4.49Z"/><path class="cls-1" d="M55.31,47.34c-1.73-.18-3.38-.6-4.93-1.22h0c-5.48-2.2-9.66-6.96-11.06-12.79-.22-.93-.37-1.89-.45-2.87-.03-.47-.05-.95-.05-1.42s.02-.95,.05-1.42c.08-.98,.23-1.94,.45-2.87,1.4-5.84,5.58-10.6,11.06-12.8h0c1.54-.63,3.21-1.04,4.93-1.22-1.33-1.65-2.83-3.16-4.48-4.49,0,0,0,0,0,0-9.02,2.54-15.89,10.28-17.11,19.78-.03,.24-.06,.5-.08,.75-.07,.75-.11,1.5-.11,2.27,0,.76,.04,1.52,.11,2.27,.02,.25,.05,.5,.08,.75,1.21,9.5,8.07,17.25,17.1,19.79,1.5-1.14,3.61-3.3,4.48-4.49Z"/><g><path class="cls-1" d="M38.86,30.46c.08,.98,.23,1.94,.45,2.87-1.75-.7-3.62-1.15-5.59-1.28-.03-.24-.06-.5-.08-.75-.07-.75-.11-1.51-.11-2.27s.04-1.52,.11-2.27c.02-.25,.05-.5,.08-.75,1.96-.13,3.84-.58,5.59-1.28-.22,.93-.38,1.89-.45,2.87-.03,.47-.05,.94-.05,1.42s.02,.95,.05,1.42Z"/><path class="cls-1" d="M31.42,29.03c0,.76-.04,1.52-.11,2.27-.02,.25-.05,.5-.08,.75-1.96,.13-3.84,.57-5.59,1.28,.22-.93,.37-1.89,.45-2.87,.03-.47,.05-.95,.05-1.42s-.02-.95-.05-1.42c-.08-.98-.23-1.94-.45-2.87,1.75,.7,3.62,1.14,5.59,1.27,.03,.24,.06,.5,.08,.75,.07,.75,.11,1.5,.11,2.27Z"/></g><path class="cls-1" d="M78.57,35c1.26,2.05,4.09,3.79,8,3.79,4.15,0,5.41-1.74,5.41-3.31,0-2.53-3.61-3.13-8.3-4.81-4.45-1.62-7.46-3.91-7.46-8.54,0-5.83,4.93-9.08,10.71-9.08,5.05,0,8.42,1.93,10.53,4.57l-4.03,4.27c-1.26-1.5-3.31-2.65-6.62-2.65-2.29,0-3.67,1.08-3.67,2.71,0,2.29,2.53,2.59,7.64,4.45,5.59,1.98,8.12,4.63,8.12,9.02,0,5.23-3.79,9.62-12.45,9.62-6.32,0-10.65-2.53-12.51-6.14l4.63-3.91Z"/><path class="cls-1" d="M101.25,29.1c0-9.74,6.8-16,15.88-16s14.98,6.8,14.98,15.28c0,0,0,1.32-.12,2.53h-23.58c.24,4.81,3.79,7.94,9.14,7.94,3.67,0,5.89-1.2,8.18-3.49l4.33,4.21c-3.91,4.15-8.18,5.41-12.75,5.41-9.5,0-16.06-6.14-16.06-15.64v-.24Zm23.52-3.25c0-3.61-3.43-6.62-7.64-6.62-4.51,0-8.24,2.95-8.54,6.62h16.18Z"/><path class="cls-1" d="M151.63,12.98c4.51,0,8.66,1.5,12.15,5.23l-4.45,4.63c-2.04-2.11-4.45-3.31-7.7-3.31-5.29,0-9.32,4.03-9.32,9.5s4.03,9.5,9.32,9.5c3.25,0,5.65-1.2,7.7-3.31l4.45,4.63c-3.49,3.73-7.64,5.23-12.15,5.23-9.14,0-16.48-6.8-16.48-16.06s7.34-16.06,16.48-16.06Z"/><path class="cls-1" d="M166.53,13.94h7.28V31.63c0,4.75,2.83,6.8,6.62,6.8s6.62-2.05,6.62-6.86V13.94h7.28v18.11c0,8.78-6.38,12.99-13.95,12.99s-13.83-4.15-13.83-12.81V13.94Z"/><path class="cls-1" d="M200.13,13.94h7.16v4.51c1.44-3.13,4.69-5.11,9.02-5.11,.78,0,1.87,.12,2.17,.18v6.98c-.84-.18-1.86-.3-3.01-.3-4.99,0-8.18,3.13-8.18,8.12v15.94h-7.16V13.94Z"/><path class="cls-1" d="M223.18,13.94h7.22v30.32h-7.22V13.94Z"/><path class="cls-1" d="M266.94,13.94v30.32h-7.22v-4.39c-1.02,2.83-4.57,5.05-9.68,5.05-8.54,0-15.16-6.86-15.16-15.82s6.62-15.82,15.16-15.82c5.11,0,8.66,2.23,9.68,5.05v-4.39h7.22Zm-6.68,15.16c0-5.29-4.03-9.26-9.26-9.26s-8.96,3.97-8.96,9.26,3.85,9.26,8.96,9.26,9.26-3.97,9.26-9.26Z"/><path class="cls-1" d="M272.45,13.94h7.16v4.33c1.38-2.89,4.81-4.93,9.2-4.93,7.28,0,11.49,4.69,11.49,12.15v18.77h-7.22V26.51c0-4.09-2.35-6.74-6.44-6.74s-7.04,2.89-7.04,7.04v17.44h-7.16V13.94Z"/><path class="cls-1" d="M301.21,16.63c0-1.98,1.53-3.4,3.42-3.4s3.46,1.42,3.46,3.4-1.53,3.4-3.46,3.4-3.42-1.42-3.42-3.4Zm6.3,0c0-1.72-1.25-2.88-2.88-2.88s-2.84,1.16-2.84,2.88,1.21,2.84,2.84,2.84,2.88-1.16,2.88-2.84Zm-4.11-2.05h1.38c.75,0,1.25,.54,1.25,1.23,0,.49-.26,.92-.69,1.14l.95,1.57h-.71l-.88-1.44h-.69v1.44h-.6v-3.94Zm1.36,1.96c.38,0,.64-.32,.64-.71,0-.37-.26-.67-.64-.67h-.75v1.38h.75Z"/><g><path class="cls-1" d="M83.69,54.24c2.91,0,5.49,1.29,7.27,3.35l-2.71,2.3c-1.13-1.26-2.76-2.04-4.56-2.04-3.2,0-5.7,2.42-5.7,5.67s2.5,5.65,5.7,5.65c1.81,0,3.46-.77,4.59-2.06l2.71,2.29c-1.78,2.09-4.38,3.38-7.3,3.38-5.34,0-9.67-3.89-9.67-9.26s4.33-9.28,9.67-9.28Z"/><path class="cls-1" d="M101.1,54.53h3.53l7.43,17.97h-4.23l-1.21-3.02h-7.5l-1.21,3.02h-4.23l7.43-17.97Zm4.38,11.79l-2.6-6.53-2.63,6.53h5.23Z"/><path class="cls-1" d="M116.01,54.53h3.53l8.61,11.17v-11.17h3.84v17.97h-3.25l-8.9-11.48v11.48h-3.84v-17.97Z"/><path class="cls-1" d="M143.37,54.53h3.53l7.43,17.97h-4.23l-1.21-3.02h-7.5l-1.21,3.02h-4.23l7.43-17.97Zm4.38,11.79l-2.6-6.53-2.63,6.53h5.23Z"/><path class="cls-1" d="M158.25,54.53h6.81c6.27,0,9.54,3.82,9.54,9.03s-3.25,8.95-9.51,8.95h-6.83v-17.97Zm6.58,14.36c4.54,0,5.78-2.37,5.78-5.34s-1.24-5.42-5.8-5.42h-2.58v10.75h2.6Z"/><path class="cls-1" d="M183.85,54.53h3.53l7.43,17.97h-4.23l-1.21-3.02h-7.5l-1.21,3.02h-4.23l7.43-17.97Zm4.38,11.79l-2.6-6.53-2.63,6.53h5.23Z"/></g></g></g></svg>