<?xml version="1.0" encoding="UTF-8"?><svg id="Layer_2" xmlns="http://www.w3.org/2000/svg" viewBox="0 0 241.88 57.13"><defs><style>.cls-1{fill:#0c7b40;}.cls-2{fill:#0aa147;}.cls-3{fill:#95c93d;}</style></defs><g id="Layer_1-2"><g><path class="cls-2" d="M25.45,0c-3.15,0-5.7,2.56-5.7,5.7s2.56,5.71,5.7,5.71,5.71-2.56,5.71-5.71S28.6,0,25.45,0Zm0,7.86c-1.19,0-2.16-.97-2.16-2.16s.97-2.16,2.16-2.16,2.16,.97,2.16,2.16-.97,2.16-2.16,2.16Z"/><path class="cls-2" d="M25.46,34.12c-3.15,0-5.71,2.56-5.71,5.7s2.56,5.71,5.71,5.71,5.7-2.56,5.7-5.71-2.56-5.7-5.7-5.7Zm0,7.86c-1.19,0-2.16-.97-2.16-2.16s.97-2.16,2.16-2.16,2.16,.97,2.16,2.16-.97,2.16-2.16,2.16Z"/><path class="cls-2" d="M33.43,22.76c5.07-2.42,8.88-7.08,10.13-12.69-1.73,.18-3.35,.71-4.81,1.51-1.14,2.73-3.1,5.02-5.57,6.59-.08,.05-.17,.11-.25,.16-.1,.06-.2,.12-.31,.18-.58,.34-1.18,.63-1.81,.88-1.37,.55-2.84,.9-4.38,1h0c-.15,0-.3,.02-.46,.02-.17,0-.35,.01-.53,.01s-.35,0-.52,0c-.15,0-.31-.01-.46-.02-1.54-.1-3.01-.45-4.38-1h0c-.62-.25-1.23-.54-1.8-.87-.07-.04-.13-.08-.2-.12-.08-.05-.16-.09-.24-.14-2.55-1.59-4.58-3.95-5.74-6.75-1.45-.78-3.06-1.28-4.78-1.45,1.25,5.62,5.06,10.28,10.13,12.7-5.07,2.42-8.88,7.08-10.14,12.69,1.72-.17,3.33-.67,4.78-1.45,1.16-2.8,3.18-5.16,5.74-6.74,.08-.05,.15-.1,.23-.15,.06-.04,.13-.08,.2-.12,.58-.33,1.18-.63,1.8-.88h0c1.37-.55,2.84-.9,4.38-1,.15,0,.31-.02,.46-.02,.17,0,.34,0,.52,0s.35,0,.53,.01c.15,0,.31,.01,.46,.02h0c1.54,.1,3.01,.45,4.38,1,.63,.25,1.23,.55,1.81,.88,.11,.06,.21,.12,.31,.19,.09,.05,.17,.1,.25,.16,2.46,1.57,4.42,3.87,5.56,6.59,1.46,.8,3.08,1.33,4.81,1.51-1.26-5.61-5.06-10.26-10.13-12.68Z"/><g><path class="cls-3" d="M47.84,17.67c-.77-.39-1.64-.61-2.56-.61-3.15,0-5.7,2.56-5.7,5.7s2.56,5.71,5.7,5.71c.92,0,1.79-.22,2.56-.61h0c1.86-.94,3.14-2.87,3.14-5.09s-1.28-4.16-3.14-5.09Zm-2.56,7.25c-1.19,0-2.16-.97-2.16-2.16s.97-2.16,2.16-2.16,2.16,.97,2.16,2.16-.97,2.16-2.16,2.16Z"/><path class="cls-3" d="M5.7,17.06c-.95,0-1.84,.23-2.63,.65-1.83,.95-3.07,2.86-3.07,5.06s1.25,4.11,3.07,5.06c.79,.41,1.68,.64,2.63,.64,3.15,0,5.71-2.56,5.71-5.71s-2.56-5.7-5.71-5.7Zm0,7.86c-1.19,0-2.16-.97-2.16-2.16s.97-2.16,2.16-2.16,2.16,.97,2.16,2.16-.97,2.16-2.16,2.16Z"/></g><path class="cls-3" d="M7.56,37.11c1.35-.14,2.65-.47,3.86-.96h0c4.3-1.72,7.58-5.46,8.67-10.03,.17-.73,.29-1.48,.35-2.25,.03-.37,.04-.74,.04-1.12s-.01-.75-.04-1.11c-.06-.77-.18-1.52-.35-2.25-1.1-4.57-4.38-8.31-8.67-10.04h0c-1.21-.49-2.52-.82-3.87-.96,1.04-1.3,2.22-2.47,3.51-3.52,0,0,0,0,0,0,7.07,1.99,12.46,8.06,13.41,15.51,.03,.19,.05,.39,.06,.58,.06,.58,.09,1.18,.09,1.78s-.03,1.19-.09,1.78c-.02,.19-.04,.39-.06,.58-.95,7.45-6.33,13.53-13.41,15.51-1.17-.89-2.83-2.59-3.51-3.52Z"/><path class="cls-3" d="M43.36,37.11c-1.35-.14-2.65-.47-3.86-.96h0c-4.3-1.72-7.58-5.46-8.67-10.03-.17-.73-.29-1.48-.35-2.25-.03-.37-.04-.74-.04-1.12s.01-.75,.04-1.11c.06-.77,.18-1.52,.35-2.25,1.1-4.57,4.38-8.31,8.67-10.04h0c1.21-.49,2.52-.82,3.87-.96-1.04-1.3-2.22-2.47-3.51-3.52,0,0,0,0,0,0-7.07,1.99-12.46,8.06-13.41,15.51-.03,.19-.05,.39-.06,.58-.06,.58-.09,1.18-.09,1.78,0,.6,.03,1.19,.09,1.78,.02,.19,.04,.39,.06,.58,.95,7.45,6.33,13.53,13.41,15.51,1.17-.89,2.83-2.59,3.51-3.52Z"/><g><path class="cls-1" d="M30.47,23.88c.06,.77,.18,1.52,.35,2.25-1.37-.55-2.84-.9-4.38-1-.03-.19-.05-.39-.06-.58-.06-.59-.09-1.18-.09-1.78s.03-1.19,.09-1.78c.02-.19,.04-.39,.06-.58,1.54-.1,3.01-.45,4.38-1-.17,.73-.3,1.48-.35,2.25-.03,.37-.04,.74-.04,1.11s.01,.75,.04,1.12Z"/><path class="cls-1" d="M24.63,22.76c0,.6-.03,1.19-.09,1.78-.02,.19-.04,.39-.06,.58-1.54,.1-3.01,.45-4.38,1,.17-.73,.29-1.48,.35-2.25,.03-.37,.04-.74,.04-1.12s-.01-.75-.04-1.11c-.06-.77-.18-1.52-.35-2.25,1.37,.55,2.84,.89,4.38,1,.03,.19,.05,.39,.06,.58,.06,.58,.09,1.18,.09,1.78Z"/></g><g><path d="M61.31,27.4c.99,1.61,3.22,2.98,6.29,2.98,3.27,0,4.26-1.37,4.26-2.6,0-1.99-2.84-2.46-6.53-3.79-3.5-1.28-5.87-3.08-5.87-6.72,0-4.59,3.88-7.15,8.42-7.15,3.97,0,6.63,1.51,8.28,3.6l-3.17,3.36c-.99-1.18-2.6-2.08-5.21-2.08-1.8,0-2.89,.85-2.89,2.13,0,1.8,1.99,2.03,6.01,3.5,4.4,1.56,6.39,3.64,6.39,7.1,0,4.12-2.98,7.57-9.8,7.57-4.97,0-8.38-1.99-9.84-4.83l3.64-3.08Z"/><path d="M79.15,22.76c0-7.67,5.35-12.59,12.49-12.59s11.78,5.35,11.78,12.02c0,0,0,1.04-.09,1.99h-18.55c.19,3.79,2.98,6.25,7.19,6.25,2.89,0,4.64-.95,6.44-2.75l3.41,3.31c-3.08,3.27-6.44,4.26-10.03,4.26-7.48,0-12.63-4.83-12.63-12.3v-.19Zm18.5-2.55c0-2.84-2.7-5.21-6.01-5.21-3.55,0-6.48,2.32-6.72,5.21h12.73Z"/><path d="M118.79,10.08c3.55,0,6.81,1.18,9.56,4.12l-3.5,3.64c-1.61-1.66-3.5-2.6-6.06-2.6-4.16,0-7.33,3.17-7.33,7.48s3.17,7.48,7.33,7.48c2.56,0,4.45-.95,6.06-2.6l3.5,3.64c-2.74,2.93-6.01,4.12-9.56,4.12-7.19,0-12.97-5.35-12.97-12.63s5.77-12.63,12.97-12.63Z"/><path d="M130.51,10.84h5.73v13.91c0,3.74,2.22,5.35,5.21,5.35s5.21-1.61,5.21-5.4V10.84h5.73v14.24c0,6.91-5.02,10.22-10.98,10.22s-10.88-3.27-10.88-10.08V10.84Z"/><path d="M156.95,10.84h5.63v3.55c1.14-2.46,3.69-4.02,7.1-4.02,.62,0,1.47,.09,1.7,.14v5.49c-.66-.14-1.47-.24-2.37-.24-3.93,0-6.44,2.46-6.44,6.39v12.54h-5.63V10.84Z"/><path d="M175.08,10.84h5.68v23.85h-5.68V10.84Z"/><path d="M209.5,10.84v23.85h-5.68v-3.45c-.8,2.22-3.6,3.97-7.62,3.97-6.72,0-11.93-5.39-11.93-12.45s5.21-12.44,11.93-12.44c4.02,0,6.81,1.75,7.62,3.97v-3.45h5.68Zm-5.25,11.92c0-4.16-3.17-7.29-7.29-7.29s-7.05,3.12-7.05,7.29,3.03,7.29,7.05,7.29,7.29-3.12,7.29-7.29Z"/><path d="M213.84,10.84h5.63v3.41c1.09-2.27,3.79-3.88,7.24-3.88,5.73,0,9.04,3.69,9.04,9.56v14.76h-5.68v-13.96c0-3.22-1.85-5.3-5.06-5.3s-5.54,2.27-5.54,5.54v13.72h-5.63V10.84Z"/><path d="M236.46,12.95c0-1.56,1.2-2.68,2.69-2.68s2.72,1.12,2.72,2.68-1.2,2.67-2.72,2.67-2.69-1.12-2.69-2.67Zm4.96,0c0-1.35-.98-2.27-2.27-2.27s-2.23,.91-2.23,2.27,.95,2.23,2.23,2.23,2.27-.91,2.27-2.23Zm-3.23-1.61h1.08c.59,0,.98,.42,.98,.97,0,.39-.2,.73-.54,.9l.74,1.23h-.56l-.69-1.13h-.54v1.13h-.47v-3.1Zm1.07,1.54c.3,0,.51-.25,.51-.56,0-.29-.2-.52-.51-.52h-.59v1.08h.59Z"/><g><path d="M65.34,42.54c2.29,0,4.32,1.01,5.72,2.64l-2.13,1.81c-.89-.99-2.17-1.6-3.59-1.6-2.52,0-4.48,1.91-4.48,4.46s1.97,4.44,4.48,4.44c1.42,0,2.72-.61,3.61-1.62l2.13,1.81c-1.4,1.64-3.45,2.66-5.74,2.66-4.2,0-7.61-3.06-7.61-7.28s3.41-7.3,7.61-7.3Z"/><path d="M79.04,42.76h2.78l5.84,14.14h-3.33l-.95-2.37h-5.9l-.95,2.37h-3.33l5.84-14.14Zm3.45,9.27l-2.05-5.13-2.07,5.13h4.12Z"/><path d="M90.76,42.76h2.78l6.78,8.78v-8.78h3.02v14.14h-2.56l-7-9.03v9.03h-3.02v-14.14Z"/><path d="M112.29,42.76h2.78l5.84,14.14h-3.33l-.95-2.37h-5.9l-.95,2.37h-3.33l5.84-14.14Zm3.45,9.27l-2.05-5.13-2.07,5.13h4.12Z"/><path d="M123.99,42.76h5.36c4.93,0,7.51,3,7.51,7.1s-2.56,7.04-7.49,7.04h-5.38v-14.14Zm5.17,11.3c3.57,0,4.54-1.87,4.54-4.2s-.97-4.26-4.56-4.26h-2.03v8.46h2.05Z"/><path d="M144.14,42.76h2.78l5.84,14.14h-3.33l-.95-2.37h-5.9l-.95,2.37h-3.33l5.84-14.14Zm3.45,9.27l-2.05-5.13-2.07,5.13h4.12Z"/></g></g></g></g></svg>