<?xml version="1.0" encoding="utf-8"?>
<!-- Generator: Adobe Illustrator 22.0.0, SVG Export Plug-In . SVG Version: 6.00 Build 0)  -->
<svg version="1.1" id="Layer_1" xmlns="http://www.w3.org/2000/svg" xmlns:xlink="http://www.w3.org/1999/xlink" x="0px" y="0px"
	 viewBox="0 0 127.1 113.5" style="enable-background:new 0 0 127.1 113.5;" xml:space="preserve">
<style type="text/css">
	.st0{fill:#0AA147;}
	.st1{fill:#95C93D;}
	.st2{fill:#0C7B40;}
</style>
<g>
	<path class="st0" d="M63.4,0c-7.8,0-14.2,6.4-14.2,14.2c0,7.8,6.4,14.2,14.2,14.2c7.8,0,14.2-6.4,14.2-14.2C77.7,6.4,71.3,0,63.4,0
		z M63.4,19.6c-3,0-5.4-2.4-5.4-5.4c0-3,2.4-5.4,5.4-5.4c3,0,5.4,2.4,5.4,5.4C68.8,17.2,66.4,19.6,63.4,19.6z"/>
</g>
<g>
	<path class="st0" d="M63.5,85c-7.8,0-14.2,6.4-14.2,14.2c0,7.8,6.4,14.2,14.2,14.2c7.8,0,14.2-6.4,14.2-14.2
		C77.7,91.4,71.3,85,63.5,85z M63.5,104.7c-3,0-5.4-2.4-5.4-5.4c0-3,2.4-5.4,5.4-5.4c3,0,5.4,2.4,5.4,5.4
		C68.8,102.2,66.4,104.7,63.5,104.7z"/>
</g>
<path class="st0" d="M83.3,56.7c12.6-6,22.1-17.7,25.3-31.6c-4.3,0.4-8.4,1.8-12,3.8c-2.8,6.8-7.7,12.5-13.9,16.4
	c-0.2,0.1-0.4,0.3-0.6,0.4c-0.3,0.2-0.5,0.3-0.8,0.4c-1.4,0.8-3,1.6-4.5,2.2c-3.4,1.4-7.1,2.2-10.9,2.5h0c-0.4,0-0.8,0-1.1,0.1
	c-0.4,0-0.9,0-1.3,0c-0.4,0-0.9,0-1.3,0c-0.4,0-0.8,0-1.1-0.1c-3.8-0.3-7.5-1.1-10.9-2.5h0c-1.6-0.6-3.1-1.4-4.5-2.2
	c-0.2-0.1-0.3-0.2-0.5-0.3c-0.2-0.1-0.4-0.2-0.6-0.4c-6.4-4-11.4-9.8-14.3-16.8c-3.6-1.9-7.6-3.2-11.9-3.6
	c3.1,14,12.6,25.6,25.3,31.7c-12.6,6-22.1,17.7-25.3,31.6c4.3-0.4,8.3-1.7,11.9-3.6c2.9-7,7.9-12.9,14.3-16.8
	c0.2-0.1,0.4-0.2,0.6-0.4c0.2-0.1,0.3-0.2,0.5-0.3c1.4-0.8,2.9-1.6,4.5-2.2h0c3.4-1.4,7.1-2.2,10.9-2.5c0.4,0,0.8,0,1.1-0.1
	c0.4,0,0.9,0,1.3,0c0.4,0,0.9,0,1.3,0c0.4,0,0.8,0,1.1,0.1h0c3.8,0.3,7.5,1.1,10.9,2.5c1.6,0.6,3.1,1.4,4.5,2.2
	c0.3,0.1,0.5,0.3,0.8,0.5c0.2,0.1,0.4,0.3,0.6,0.4c6.1,3.9,11,9.6,13.9,16.4c3.6,2,7.7,3.3,12,3.8C105.4,74.4,96,62.8,83.3,56.7z"/>
<g>
	<g>
		<path class="st1" d="M119.2,44c-1.9-1-4.1-1.5-6.4-1.5c-7.8,0-14.2,6.4-14.2,14.2c0,7.8,6.4,14.2,14.2,14.2c2.3,0,4.5-0.5,6.4-1.5
			h0c4.6-2.3,7.8-7.2,7.8-12.7C127.1,51.2,123.9,46.4,119.2,44z M112.8,62.1c-3,0-5.4-2.4-5.4-5.4c0-3,2.4-5.4,5.4-5.4
			c3,0,5.4,2.4,5.4,5.4C118.2,59.7,115.8,62.1,112.8,62.1z"/>
	</g>
	<g>
		<path class="st1" d="M14.2,42.5c-2.4,0-4.6,0.6-6.6,1.6C3.1,46.5,0,51.3,0,56.7S3.1,67,7.7,69.3c2,1,4.2,1.6,6.6,1.6
			c7.8,0,14.2-6.4,14.2-14.2C28.4,48.9,22.1,42.5,14.2,42.5z M14.2,62.1c-3,0-5.4-2.4-5.4-5.4c0-3,2.4-5.4,5.4-5.4
			c3,0,5.4,2.4,5.4,5.4C19.6,59.7,17.2,62.1,14.2,62.1z"/>
	</g>
</g>
<g>
	<path class="st1" d="M18.8,92.5c3.4-0.4,6.6-1.2,9.6-2.4h0c10.7-4.3,18.9-13.6,21.6-25c0.4-1.8,0.7-3.7,0.9-5.6
		c0.1-0.9,0.1-1.8,0.1-2.8c0-0.9,0-1.9-0.1-2.8c-0.1-1.9-0.4-3.8-0.9-5.6c-2.7-11.4-10.9-20.7-21.6-25h0c-3-1.2-6.3-2-9.6-2.4
		c2.6-3.2,5.5-6.2,8.7-8.8c0,0,0,0,0,0c17.6,5,31.1,20.1,33.4,38.6c0.1,0.5,0.1,1,0.2,1.5c0.1,1.5,0.2,2.9,0.2,4.4
		c0,1.5-0.1,3-0.2,4.4c0,0.5-0.1,1-0.2,1.5c-2.4,18.6-15.8,33.7-33.4,38.7C24.7,99.1,20.6,94.8,18.8,92.5z"/>
</g>
<g>
	<path class="st1" d="M108.1,92.5c-3.4-0.4-6.6-1.2-9.6-2.4h0c-10.7-4.3-18.9-13.6-21.6-25c-0.4-1.8-0.7-3.7-0.9-5.6
		c-0.1-0.9-0.1-1.8-0.1-2.8c0-0.9,0-1.9,0.1-2.8c0.1-1.9,0.4-3.8,0.9-5.6c2.7-11.4,10.9-20.7,21.6-25h0c3-1.2,6.3-2,9.6-2.4
		c-2.6-3.2-5.5-6.2-8.7-8.8c0,0,0,0,0,0c-17.6,5-31.1,20.1-33.4,38.6c-0.1,0.5-0.1,1-0.2,1.5c-0.1,1.5-0.2,2.9-0.2,4.4
		c0,1.5,0.1,3,0.2,4.4c0,0.5,0.1,1,0.2,1.5c2.4,18.6,15.8,33.7,33.4,38.7C102.2,99.1,106.4,94.8,108.1,92.5z"/>
</g>
<g>
	<g>
		<g>
			<path class="st2" d="M75.9,59.5c0.2,1.9,0.4,3.8,0.9,5.6c-3.4-1.4-7.1-2.2-10.9-2.5c-0.1-0.5-0.1-1-0.2-1.5
				c-0.1-1.5-0.2-2.9-0.2-4.4c0-1.5,0.1-3,0.2-4.4c0-0.5,0.1-1,0.2-1.5c3.8-0.3,7.5-1.1,10.9-2.5c-0.4,1.8-0.7,3.7-0.9,5.6
				c-0.1,0.9-0.1,1.8-0.1,2.8C75.8,57.7,75.9,58.6,75.9,59.5z"/>
		</g>
		<g>
			<path class="st2" d="M61.4,56.7c0,1.5-0.1,3-0.2,4.4c0,0.5-0.1,1-0.2,1.5c-3.8,0.3-7.5,1.1-10.9,2.5c0.4-1.8,0.7-3.7,0.9-5.6
				c0.1-0.9,0.1-1.8,0.1-2.8c0-0.9,0-1.9-0.1-2.8c-0.1-1.9-0.4-3.8-0.9-5.6c3.4,1.4,7.1,2.2,10.9,2.5c0.1,0.5,0.1,1,0.2,1.5
				C61.3,53.8,61.4,55.2,61.4,56.7z"/>
		</g>
	</g>
</g>
</svg>
