<svg width="120" height="120" viewBox="0 0 120 120" fill="none" xmlns="http://www.w3.org/2000/svg">
<path d="M97.2412 14.1426H23.8936V109.893H97.2412V14.1426Z" fill="white"/>
<path fill-rule="evenodd" clip-rule="evenodd" d="M88.0058 7.43701H72.7473C73.885 11.326 77.4989 14.1422 81.715 14.1422H96.7058H97.1742V109.893H23.8935V14.1422H24.1612H39.1519C43.3681 14.1422 46.9819 11.326 48.1196 7.43701H35.4042H17.2012V116.598H103.933V7.43701H88.0058Z" fill="#0AA147"/>
<path d="M88.0728 21.384C88.1397 23.1944 86.6674 24.7366 84.8604 24.8037C84.7935 24.8037 84.5928 24.8037 84.1912 24.8037C83.9904 24.8037 83.7897 24.8037 83.522 24.8037H63.8466H57.3551H37.6797C37.412 24.8037 37.2112 24.8037 37.0104 24.8037C36.6089 24.8037 36.3412 24.8037 36.3412 24.8037C34.5343 24.7366 33.1289 23.1944 33.1289 21.384C33.1958 19.5736 34.6681 18.0985 36.4751 18.0985H37.6128C39.5535 18.0314 43.0335 17.8303 46.8481 15.6846C50.6628 13.5389 51.5997 9.85107 52.202 8.10772C52.202 8.10772 52.202 8.10772 52.202 8.04067C52.2689 7.83951 52.3358 7.5713 52.4028 7.37015C52.7374 6.49847 53.1389 5.69385 53.7412 4.95627L53.8081 4.88922C53.942 4.75512 54.0758 4.62101 54.2097 4.41986C54.2766 4.35281 54.2766 4.28575 54.3435 4.28575C54.4774 4.15165 54.6112 4.01755 54.6781 3.95049C54.7451 3.88344 54.812 3.81639 54.8789 3.74934C55.0128 3.61523 55.1466 3.54818 55.2135 3.41408C55.2804 3.34703 55.4143 3.27997 55.4812 3.21292C55.6151 3.14587 55.7489 3.01177 55.8158 2.94471C56.0166 2.81061 56.2174 2.67651 56.4181 2.5424C56.4851 2.47535 56.6189 2.47535 56.6858 2.4083C56.8197 2.34125 56.9535 2.27419 57.1543 2.20714C57.2212 2.14009 57.3551 2.14009 57.422 2.07304C57.5558 2.00599 57.7566 1.93893 57.8904 1.93893C58.0243 1.93893 58.0912 1.87188 58.2251 1.87188C58.3589 1.80483 58.5597 1.80483 58.6935 1.73778C58.7604 1.73778 58.8943 1.67073 58.9612 1.67073C59.162 1.67073 59.2958 1.67073 59.4966 1.60367C59.5635 1.60367 59.6974 1.60367 59.7643 1.60367C60.032 1.60367 60.2997 1.53662 60.5674 1.53662C60.8351 1.53662 61.1028 1.53662 61.3704 1.60367C61.4374 1.60367 61.5712 1.60367 61.6381 1.60367C61.8389 1.67073 62.0397 1.67073 62.2404 1.67073C62.3743 1.67073 62.4412 1.73778 62.5081 1.73778C62.642 1.80483 62.8428 1.80483 62.9766 1.87188C63.1104 1.87188 63.1774 1.93893 63.3112 1.93893C63.4451 2.00599 63.6458 2.07304 63.7797 2.07304C63.8466 2.14009 63.9804 2.14009 64.0474 2.20714C64.1812 2.27419 64.3151 2.34125 64.5158 2.4083C64.5828 2.47535 64.7166 2.47535 64.7835 2.5424C64.9843 2.74356 65.1851 2.87766 65.3858 3.01177C65.5197 3.07882 65.6535 3.21292 65.7204 3.27997C65.7874 3.34703 65.9212 3.41408 65.9881 3.48113C66.122 3.61523 66.2558 3.68229 66.3228 3.81639C66.3897 3.88344 66.4566 3.95049 66.5235 4.01755C66.6574 4.15165 66.7912 4.28575 66.8581 4.35281C66.9251 4.41986 66.9251 4.48691 66.992 4.48691C67.1258 4.62101 67.2597 4.75512 67.3935 4.95627L67.4604 5.02333C67.9958 5.7609 68.4643 6.56552 68.7989 7.4372C68.8658 7.63836 68.9328 7.83951 68.9997 8.10772C68.9997 8.10772 68.9997 8.10772 68.9997 8.17477C69.602 9.91812 70.5389 13.5389 74.3535 15.7516C78.1012 17.8973 81.6481 18.0985 83.5889 18.1655H84.7266C86.5335 18.0985 88.0728 19.5066 88.0728 21.384ZM63.9135 10.7898C63.9135 8.91234 62.4412 7.4372 60.5674 7.4372C58.6935 7.4372 57.2212 8.91234 57.2212 10.7898C57.2212 12.6673 58.6935 14.1424 60.5674 14.1424C62.4412 14.1424 63.9135 12.6673 63.9135 10.7898Z" fill="#95C93D"/>
<path d="M39.8212 37.8789H33.1289V44.5841H39.8212V37.8789Z" fill="#0AA147"/>
<path d="M39.7538 50.2832H33.0615V56.9884H39.7538V50.2832Z" fill="#0AA147"/>
<path d="M39.7538 61.9507H33.0615V68.6559H39.7538V61.9507Z" fill="#0AA147"/>
<path d="M39.6874 74.2881H32.9951V80.9933H39.6874V74.2881Z" fill="#0AA147"/>
<path d="M39.6874 86.6255H32.9951V93.3307H39.6874V86.6255Z" fill="#0AA147"/>
<path fill-rule="evenodd" clip-rule="evenodd" d="M84.6597 44.651H48.9897C47.1159 44.651 45.6436 43.1759 45.6436 41.2984C45.6436 39.4209 47.1159 37.9458 48.9897 37.9458H84.6597C86.5336 37.9458 88.0059 39.4209 88.0059 41.2984C88.0059 43.1088 86.5336 44.651 84.6597 44.651Z" fill="#95C93D"/>
<path fill-rule="evenodd" clip-rule="evenodd" d="M84.6597 56.8546H48.9897C47.1159 56.8546 45.6436 55.3795 45.6436 53.502C45.6436 51.6246 47.1159 50.1494 48.9897 50.1494H84.6597C86.5336 50.1494 88.0059 51.6246 88.0059 53.502C88.0059 55.3795 86.5336 56.8546 84.6597 56.8546Z" fill="#95C93D"/>
<path fill-rule="evenodd" clip-rule="evenodd" d="M84.7271 68.8566H49.0571C47.1832 68.8566 45.7109 67.3814 45.7109 65.504C45.7109 63.6265 47.1832 62.1514 49.0571 62.1514H84.7271C86.6009 62.1514 88.0732 63.6265 88.0732 65.504C88.0732 67.3814 86.6009 68.8566 84.7271 68.8566Z" fill="#95C93D"/>
<path fill-rule="evenodd" clip-rule="evenodd" d="M84.5923 68.8571H48.9223C47.0485 68.8571 45.5762 67.3819 45.5762 65.5045C45.5762 63.627 47.0485 62.1519 48.9223 62.1519H84.5923C86.4662 62.1519 87.9385 63.627 87.9385 65.5045C87.9385 67.3819 86.4662 68.8571 84.5923 68.8571Z" fill="#95C93D"/>
<path fill-rule="evenodd" clip-rule="evenodd" d="M84.5923 81.0607H48.9223C47.0485 81.0607 45.5762 79.5855 45.5762 77.7081C45.5762 75.8306 47.0485 74.3555 48.9223 74.3555H84.5923C86.4662 74.3555 87.9385 75.8306 87.9385 77.7081C87.9385 79.5855 86.4662 81.0607 84.5923 81.0607Z" fill="#95C93D"/>
<path fill-rule="evenodd" clip-rule="evenodd" d="M84.6597 93.0626H48.9897C47.1159 93.0626 45.6436 91.5875 45.6436 89.71C45.6436 87.8326 47.1159 86.3574 48.9897 86.3574H84.6597C86.5336 86.3574 88.0059 87.8326 88.0059 89.71C88.0059 91.5875 86.5336 93.0626 84.6597 93.0626Z" fill="#95C93D"/>
</svg>
