<svg width="120" height="120" viewBox="0 0 120 120" fill="none" xmlns="http://www.w3.org/2000/svg">
<path d="M104.666 23.7432H15.333V83.0765H104.666V23.7432Z" fill="white"/>
<path d="M56.6667 62.41C51.4784 62.4151 47.1479 58.4515 46.695 53.283C46.242 48.1146 49.8171 43.4581 54.9272 42.5607C60.0372 41.6633 64.9849 44.8231 66.32 49.8367L73.3333 51.4633C72.92 44.3808 68.0684 38.3362 61.243 36.4002C54.4177 34.4642 47.1149 37.0612 43.0444 42.8719C38.9739 48.6827 39.0281 56.4333 43.1794 62.1866C47.3307 67.9398 54.6691 70.4345 61.4667 68.4033L58.2667 62.3033C57.737 62.3811 57.202 62.4167 56.6667 62.41Z" fill="#95C93D"/>
<path d="M109.673 101.87H10.34C4.63458 101.87 0.00735709 97.2484 0 91.543H7.37333C7.377 93.1725 8.69711 94.4926 10.3267 94.4963H109.66C111.29 94.4926 112.61 93.1725 112.613 91.543H120C119.993 97.2432 115.374 101.862 109.673 101.87Z" fill="#0AA147"/>
<path d="M98.2533 18.1299H21.7466C16.0464 18.1372 11.4273 22.7563 11.4199 28.4565V87.6432H108.58V28.4565C108.573 22.7563 103.953 18.1372 98.2533 18.1299ZM101.2 80.2632H18.7999V28.4565C18.7999 26.8281 20.1181 25.5069 21.7466 25.5032H98.2533C99.8817 25.5069 101.2 26.8281 101.2 28.4565V80.2632Z" fill="#0AA147"/>
<path d="M101.2 68.9501C92.0944 68.7683 84.8076 61.3345 84.8076 52.2268C84.8076 43.119 92.0944 35.6852 101.2 35.5034V41.4034C95.2246 41.4034 90.3804 46.2477 90.3804 52.2234C90.3804 58.1991 95.2246 63.0434 101.2 63.0434V68.9501Z" fill="#95C93D"/>
<path d="M82.4395 55.61L53.8662 49.0767L67.4395 75.0033L70.4395 65.2567L80.9529 73.39L84.2729 69.0967L73.7795 60.9833L82.4395 55.61Z" fill="#0AA147"/>
</svg>
