<svg xmlns="http://www.w3.org/2000/svg" xml:space="preserve" viewBox="0 0 291.957 291.957">
  <path fill="#1C2430" d="m283.07 168.875-17.106-9.876c.461-4.279.704-8.622.704-13.02s-.243-8.742-.704-13.021l17.106-9.876a15.702 15.702 0 0 0 7.363-9.598 15.706 15.706 0 0 0-1.58-11.994l-32.908-57.001a15.865 15.865 0 0 0-13.705-7.907c-2.759 0-5.485.734-7.887 2.12l-17.155 9.905a120.701 120.701 0 0 0-22.503-13.037V15.807C194.695 7.091 187.604 0 178.889 0h-65.82c-8.716 0-15.807 7.091-15.807 15.807V35.57a120.674 120.674 0 0 0-22.503 13.038l-17.155-9.904a15.791 15.791 0 0 0-7.887-2.121 15.865 15.865 0 0 0-13.705 7.907l-32.909 57a15.705 15.705 0 0 0-1.58 11.994 15.708 15.708 0 0 0 7.363 9.598l17.106 9.876c-.461 4.279-.704 8.622-.704 13.021s.243 8.742.704 13.02l-17.106 9.876a15.703 15.703 0 0 0-7.363 9.598 15.705 15.705 0 0 0 1.58 11.994l32.908 57.001a15.865 15.865 0 0 0 13.705 7.907c2.759 0 5.485-.733 7.887-2.12l17.155-9.905a120.701 120.701 0 0 0 22.503 13.037v19.764c0 4.222 1.644 8.19 4.631 11.176a15.704 15.704 0 0 0 11.176 4.63h65.82c8.715 0 15.807-7.09 15.807-15.806v-19.764a120.749 120.749 0 0 0 22.502-13.037l17.156 9.904a15.79 15.79 0 0 0 7.887 2.12 15.865 15.865 0 0 0 13.705-7.907l32.908-57.001a15.705 15.705 0 0 0 1.58-11.994 15.696 15.696 0 0 0-7.363-9.597zm-137.091 32.793c-30.756 0-55.689-24.934-55.689-55.689s24.934-55.689 55.689-55.689 55.689 24.934 55.689 55.689-24.934 55.689-55.689 55.689z"/>
</svg>
