<svg xmlns="http://www.w3.org/2000/svg" viewBox="0 0 204.25 204.25">
  <defs/>
  <path fill="#ffffff" d="M85.3 64.15V16.2C85.3 7.27 92.76 0 101.94 0h.24c9.18 0 16.66 7.27 16.66 16.21v47.94c0 8.94-7.48 16.21-16.66 16.21h-.24c-9.18 0-16.66-7.27-16.66-16.21zm82.33-17.62a17 17 0 00-28.95 11.56 17.37 17.37 0 005.02 12.58 58.02 58.02 0 0116.9 42.14 58.55 58.55 0 01-58.47 57.46 58.1 58.1 0 01-41.36-17.13 58.1 58.1 0 01-17.13-41.36 58.07 58.07 0 0117-41.2 16.91 16.91 0 004.96-12.42 17 17 0 00-28.96-11.65 91.83 91.83 0 00-26.99 65.2c-.02 23.46 9.3 46.1 26.24 63.73 16.94 17.64 39.19 27.85 62.63 28.75a91.87 91.87 0 0069-27.02 91.87 91.87 0 0027.08-65.4c0-24.62-9.58-47.79-26.97-65.24z"/>
</svg>