<svg xmlns="http://www.w3.org/2000/svg" viewBox="0 0 24 24">
  <path fill="#76a9fa" fill-rule="evenodd" d="M20 9.67V20a2 2 0 01-2 2H2a2 2 0 01-2-2V8a2 2 0 012-2h6.33L10 7.67h8a2 2 0 012 2z"/>
  <path fill="#2969ff" fill-rule="evenodd" d="M24 5.67V16a2 2 0 01-2 2H6a2 2 0 01-2-2V4a2 2 0 012-2h5.5a2 2 0 011.42.59L14 3.67h8a2 2 0 012 2z"/>
  <path fill="#fff" d="M13.54 12.89l-2.43-2.43a.38.38 0 010-.54l.54-.53a.37.37 0 01.53 0l2.43 2.43a.37.37 0 010 .53l-.53.54a.38.38 0 01-.54 0zm0 0l-.54-.54a.37.37 0 010-.53l4.7-4.71a.38.38 0 01.54 0l.53.54a.37.37 0 010 .53l-4.7 4.71a.38.38 0 01-.53 0z"/>
</svg>