<svg xmlns="http://www.w3.org/2000/svg" xmlns:xlink="http://www.w3.org/1999/xlink" viewBox="0 0 477.02 476.62">
  <defs/>
  <defs>
    <linearGradient id="a" x1="296.77" x2="481.06" y1="304.41" y2="-14.26" gradientTransform="rotate(-7.26 252.78 248.94)" gradientUnits="userSpaceOnUse">
      <stop offset=".16" stop-color="#3568ad"/>
      <stop offset=".2" stop-color="#3466a7"/>
      <stop offset=".43" stop-color="#2d5c82"/>
      <stop offset=".62" stop-color="#29566c"/>
      <stop offset=".74" stop-color="#275464"/>
    </linearGradient>
    <linearGradient id="b" x1="261.69" x2="383.48" y1="18.54" y2="421.1" gradientUnits="userSpaceOnUse">
      <stop offset="0" stop-color="#3385aa"/>
      <stop offset=".98" stop-color="#2a5d87"/>
    </linearGradient>
    <linearGradient id="c" x1="136.93" x2="195.4" y1="424.19" y2="228.5" gradientUnits="userSpaceOnUse">
      <stop offset="0" stop-color="#285566"/>
      <stop offset=".35" stop-color="#29576e"/>
      <stop offset=".89" stop-color="#2b5e84"/>
      <stop offset="1" stop-color="#2b608a"/>
    </linearGradient>
    <linearGradient id="d" x1="113.82" x2="285.1" y1="431.9" y2="279.3" gradientUnits="userSpaceOnUse">
      <stop offset=".15" stop-color="#307390"/>
      <stop offset=".86" stop-color="#295867"/>
    </linearGradient>
    <linearGradient id="e" x1="448.81" x2="188.81" y1="390.91" y2="244.55" gradientUnits="userSpaceOnUse">
      <stop offset="0" stop-color="#2c5b7d"/>
      <stop offset=".78" stop-color="#3568ad"/>
    </linearGradient>
    <linearGradient id="f" x1="211.83" x2="566.28" y1="282" y2="282" gradientUnits="userSpaceOnUse">
      <stop offset="0" stop-color="#275463"/>
      <stop offset=".14" stop-color="#235c67"/>
      <stop offset=".37" stop-color="#167274"/>
      <stop offset=".64" stop-color="#039787"/>
      <stop offset=".65" stop-color="#029888"/>
    </linearGradient>
    <linearGradient id="g" x1="263.31" x2="441.64" y1="275.61" y2="-32.75" xlink:href="#a"/>
    <linearGradient id="h" x1="-65.17" x2="136.35" y1="217.57" y2="218.46" gradientUnits="userSpaceOnUse">
      <stop offset=".36" stop-color="#09a9f1"/>
      <stop offset=".52" stop-color="#06a6d0"/>
      <stop offset=".73" stop-color="#03a3ab"/>
      <stop offset=".89" stop-color="#01a195"/>
      <stop offset="1" stop-color="#00a08d"/>
    </linearGradient>
    <linearGradient id="i" x1="11.49" x2="433.29" y1="148.09" y2="148.09" gradientUnits="userSpaceOnUse">
      <stop offset=".31" stop-color="#3481a7"/>
      <stop offset=".73" stop-color="#2c5986"/>
    </linearGradient>
  </defs>
  <g data-name="Layer 12">
    <path fill="url(#a)" d="M269.78 378.36h.03l.1-.02z" transform="translate(-11.49 -10.71)"/>
    <path fill="none" d="M320.15 139l-1.1-.9 1.1.9zM258.42 367.63a128.78 128.78 0 0026.85-7.17 483.9 483.9 0 01-26.85 7.17z"/>
    <path fill="#af0000" d="M318.94 138.01l.1.1zM258.31 367.66h.01-.01zM258.42 367.63l-.1.03.1-.03z"/>
    <path fill="url(#b)" d="M428.26 174.82c-4.15-32.62-16.8-67.9-35.2-92.47-38.32-51.21-105.23-78.36-173.22-69.7a238.15 238.15 0 00-75.49 22.69C271.03-4.5 398.6 106.77 378.95 225.79a131.44 131.44 0 01-66.18 140.07c14.2-5.17 27.68-11.48 39.45-19.59 40.08-27.59 65.8-69.58 74.47-118.21a168.98 168.98 0 001.57-53.24z" transform="translate(-11.49 -10.71)"/>
    <path fill="url(#c)" d="M108.62 401.16c-13.52-21.73-25-45.23-28.44-72.3a181.01 181.01 0 011.18-55.08c7.92-44.43 28.34-83.29 63-110.84a232.46 232.46 0 0138.42-25.22 130.43 130.43 0 0148.42-17.15c-92.75-36.44-253.63 74.8-195.28 234 43.74 88.9 123.67 140.22 244.19 131.27-73.94 5.5-134.73-25.59-171.49-84.68z" transform="translate(-11.49 -10.71)"/>
    <path fill="url(#d)" d="M120.81 274.05a131.47 131.47 0 0179.35-145.02 183.63 183.63 0 0079.95 356.81 238.15 238.15 0 0075.6-22.75c-126.17 39.83-253.27-70.5-234.9-189.04z" transform="translate(-11.49 -10.71)"/>
    <path fill="url(#e)" d="M486.57 219.11c7.6 59.68-16.55 116.33-59.67 154.09a189.66 189.66 0 01-174.44 39.55 183.13 183.13 0 01-83.86-50.05 172.7 172.7 0 01-28.96-41.04 130.5 130.5 0 01-19.32-50.57C98.23 391.04 225.35 507.05 353.36 464.42c.77-.25 1.58-1.09 2.35-1.33 88.66-43.83 144.06-140.36 130.86-243.98z" transform="translate(-11.49 -10.71)"/>
    <path fill="url(#f)" d="M486.57 219.11a245.4 245.4 0 00-22.86-75.83c39.76 125.37-68.67 251.81-186.29 235.65a131.45 131.45 0 01-140.96-62.46 167.38 167.38 0 0031.42 47.21 183.49 183.49 0 0083.7 50.52c23.4 6.48 50.1 8.17 75.86 4.9a186.89 186.89 0 00100-44.6c43.12-37.76 67.55-94.08 59.13-155.39z" transform="translate(-11.49 -10.71)"/>
    <path fill="url(#g)" d="M464.45 145.68c-.26-.8-.49-1.6-.74-2.4C419.83 54.76 323.37-.54 219.84 12.65a183.64 183.64 0 01127.23 333.53 176.34 176.34 0 01-25.93 14.7 130.51 130.51 0 01-46.02 18.52C393 400.17 507.35 276.4 464.45 145.68z" transform="translate(-11.49 -10.71)"/>
    <path fill="url(#h)" d="M229.77 120.78c1.52-.24 3.05-.44 4.59-.62l.84-.1c1.51-.17 3.03-.32 4.56-.44h.02c1.52-.12 3.04-.2 4.57-.26l1.06-.04a133.47 133.47 0 0110.06.03q1.8.07 3.57.2l.77.04q2.1.16 4.19.38l1.01.12q1.7.19 3.38.43l1 .14q2.07.3 4.12.67l.66.13q1.77.32 3.51.7l1.05.23q4.09.91 8.07 2.07l.96.29q1.73.52 3.44 1.08l.57.19q1.98.66 3.93 1.39l.73.27q1.66.63 3.3 1.3l.74.3q1.94.81 3.85 1.68l.27.13q1.77.8 3.5 1.67l.73.36q3.76 1.88 7.38 4l.58.35q1.7 1 3.38 2.07l.2.12q1.82 1.16 3.6 2.38l.32.22q1.64 1.12 3.25 2.3l.34.25q3.47 2.56 6.76 5.34l.33.28q3.3 2.8 6.41 5.82l.22.2a132.05 132.05 0 019.01 9.72l.07.07q2.85 3.4 5.47 7l.09.13q2.62 3.6 5 7.38l.03.05a131.06 131.06 0 016.6 11.83c-9.71-27.64-25.45-54.08-46.5-71.11-29.28-23.7-65.74-36.93-106.88-39.17-12.03-.66-28.21 1.38-40.67 2.96-41.89 5.34-84.56 21.44-112.6 46.82-39.3 35.57-54.59 94.22-47.83 147.25a238.17 238.17 0 0022.54 75.2C-4.06 226.8 109.58 98.2 229.77 120.78z" transform="translate(-11.49 -10.71)"/>
    <path fill="url(#i)" d="M211.4 90.34c41.13 2.24 79 17.04 108.27 40.73a162.83 162.83 0 0140.1 47.4 130.5 130.5 0 0119.62 49.72C421.22 108.24 278.88-19.08 144.35 35.34 57.23 78.35 2.24 172.25 12.78 273.78 8.19 222.8 29.8 174.4 67.72 140.08c28.03-25.37 64.98-43.06 106.87-48.4a203.62 203.62 0 0136.8-1.34z" transform="translate(-11.49 -10.71)"/>
  </g>
</svg>
