<svg width="120" height="120" viewBox="0 0 120 120" fill="none" xmlns="http://www.w3.org/2000/svg">
<g clip-path="url(#clip0_4415_40586)">
<path fill-rule="evenodd" clip-rule="evenodd" d="M30.332 95.1289L37.4629 97.8698V67.4526C35.7138 71.33 33.8975 76.2101 32.552 82.0261C31.1393 87.9758 30.6011 92.5217 30.332 95.1289Z" fill="white"/>
<path fill-rule="evenodd" clip-rule="evenodd" d="M82.5361 97.8695L90.0707 95.1286C89.8689 92.5883 89.3307 87.9756 87.8507 82.0927C86.438 76.6109 84.487 71.7308 82.5361 67.7866V97.8695Z" fill="white"/>
<path d="M75.8759 107.496V54.9515C75.8759 37.8377 70.965 25.6708 66.9286 18.5178C64.4395 14.1057 61.8832 11.0305 60.1341 9.15869C55.3577 14.5736 44.2577 29.8824 44.2577 54.8847L44.1904 107.563H48.3613V79.5526C48.3613 76.2101 50.5813 73.4023 53.5413 72.3996V106.961C53.5413 107.162 53.5413 107.363 53.5413 107.563H57.3759V72.3996C57.3759 70.9289 58.5195 69.7255 59.9995 69.7255C61.4122 69.7255 62.6232 70.9289 62.6232 72.3996V107.563H66.3904C66.3904 107.363 66.3904 107.229 66.3904 107.028V72.6001V72.5333C69.4177 73.4692 71.5704 76.2769 71.5704 79.6195V107.563L75.8759 107.496ZM60.0668 45.1244C54.8195 45.1244 50.5813 40.9128 50.5813 35.6985C50.5813 30.4841 54.8195 26.2725 60.0668 26.2725C65.3141 26.2725 69.5522 30.4841 69.5522 35.6985C69.5522 40.9128 65.3141 45.1244 60.0668 45.1244Z" fill="white"/>
<path d="M63.8566 37.3333C64.7193 35.2506 63.7227 32.8597 61.6307 31.9932C59.5388 31.1267 57.1435 32.1125 56.2808 34.1952C55.4181 36.2779 56.4146 38.6688 58.5066 39.5353C60.5986 40.4019 62.9939 39.416 63.8566 37.3333Z" fill="white"/>
<path d="M60.0665 45.1244C54.8192 45.1244 50.5811 40.9128 50.5811 35.6984C50.5811 30.4841 54.8192 26.2725 60.0665 26.2725C65.3138 26.2725 69.552 30.4841 69.552 35.6984C69.552 40.9128 65.3138 45.1244 60.0665 45.1244ZM60.0665 31.6874C57.7792 31.6874 55.9629 33.4924 55.9629 35.7653C55.9629 38.0382 57.7792 39.8432 60.0665 39.8432C62.3538 39.8432 64.1701 38.0382 64.1701 35.7653C64.1701 33.4924 62.3538 31.6874 60.0665 31.6874Z" fill="#95C93D"/>
<path d="M44.1905 107.563L23.3359 99.6077L23.4032 97.268C23.4032 97.0006 23.605 90.7166 25.9596 80.4884C29.1887 66.1155 35.3105 56.7564 37.3959 53.8149C37.7996 19.5873 56.905 2.60718 57.7123 1.87182L59.9323 0L62.1523 1.80497C62.9596 2.47348 82.4014 18.6514 82.6032 54.3497C85.025 57.8928 91.0796 67.5193 94.3759 80.4215C96.9323 90.516 96.9323 97.1343 96.9323 97.4017V99.7414L75.8759 107.496V54.9514C75.8759 37.8376 70.965 25.6707 66.9287 18.5177C64.4396 14.1055 61.8832 11.0304 60.1341 9.15856C55.3578 14.5735 44.2578 29.8823 44.2578 54.8845L44.1905 107.563ZM82.5359 67.7867V97.8696L90.0705 95.1287C89.8687 92.5884 89.3305 87.9757 87.8505 82.0928C86.4378 76.6111 84.4868 71.7309 82.5359 67.7867ZM30.3323 95.1287L37.4632 97.8696V67.4525C35.7141 71.3298 33.8978 76.2099 32.5523 82.026C31.1396 87.9757 30.6014 92.5215 30.3323 95.1287Z" fill="#0AA147"/>
<path fill-rule="evenodd" clip-rule="evenodd" d="M59.9996 69.7256C58.5196 69.7256 57.376 70.9289 57.376 72.3996V117.724C57.376 119.195 58.5869 120.399 59.9996 120.399C61.4796 120.399 62.6232 119.195 62.6232 117.724V72.3996C62.6232 70.9289 61.4123 69.7256 59.9996 69.7256Z" fill="#95C93D"/>
<path fill-rule="evenodd" clip-rule="evenodd" d="M48.3613 79.5525V113.981V114.047C51.3886 113.112 53.5413 110.304 53.5413 106.961V72.3994C50.5813 73.4022 48.3613 76.2099 48.3613 79.5525Z" fill="#95C93D"/>
<path fill-rule="evenodd" clip-rule="evenodd" d="M66.3906 107.028V72.6001V72.5332C69.4179 73.4691 71.5706 76.2769 71.5706 79.6194V114.181C68.6106 113.179 66.3906 110.371 66.3906 107.028Z" fill="#95C93D"/>
</g>
<defs>
<clipPath id="clip0_4415_40586">
<rect width="120" height="120" fill="white"/>
</clipPath>
</defs>
</svg>
