<svg xmlns="http://www.w3.org/2000/svg" viewBox="0 0 480 480">
  <defs/>
  <path fill="#888888" d="M240 0C107.66 0 0 107.66 0 240a238.87 238.87 0 0055 152.7c.08.12.09.28.18.39a239.93 239.93 0 0090.63 67.62l1.19.52c2.8 1.19 5.65 2.28 8.5 3.35 1.12.43 2.24.86 3.37 1.27a237.54 237.54 0 0012.21 4 211.2 211.2 0 0012.52 3.38c2 .48 4 .96 6 1.39 2.24.48 4.5.9 6.78 1.32 1.82.33 3.64.68 5.48.98 2.52.4 5.05.73 7.6 1.06 1.64.2 3.27.44 4.92.62 2.88.3 5.78.52 8.7.72 1.34.1 2.69.24 4.05.31a228.27 228.27 0 0025.76.02c1.36-.07 2.7-.22 4.05-.31 2.92-.21 5.82-.42 8.7-.72 1.65-.18 3.28-.42 4.92-.63 2.54-.33 5.08-.65 7.6-1.05 1.83-.3 3.66-.65 5.48-.99 2.26-.41 4.53-.84 6.78-1.32a260.22 260.22 0 0023.3-6.25c2.5-.8 4.97-1.64 7.42-2.52 1.13-.4 2.25-.84 3.38-1.26 2.86-1.07 5.69-2.18 8.5-3.35l1.19-.52a240 240 0 0090.62-67.63c.1-.1.1-.27.2-.38A239.02 239.02 0 00480 240C480 107.66 372.34 0 240 0zm97.26 441.76l-.36.18a230.22 230.22 0 01-8.68 3.93l-1.99.85a217.02 217.02 0 01-11.03 4.26 212.54 212.54 0 01-11.36 3.7 202.08 202.08 0 01-11.64 3.11c-1.88.45-3.75.9-5.65 1.3-2.07.45-4.16.82-6.24 1.2-1.69.31-3.37.64-5.07.91-2.34.37-4.71.66-7.07.96-1.5.2-2.99.42-4.5.58-2.7.28-5.41.47-8.13.66-1.2.08-2.4.22-3.63.28a226.98 226.98 0 01-23.81 0c-1.22-.06-2.42-.2-3.64-.28-2.72-.18-5.43-.38-8.12-.66-1.52-.16-3-.39-4.5-.58-2.36-.3-4.73-.6-7.07-.96-1.7-.27-3.39-.6-5.07-.91-2.1-.38-4.18-.76-6.24-1.2-1.9-.4-3.78-.85-5.65-1.3-1.8-.43-3.59-.85-5.36-1.33a235.12 235.12 0 01-28.67-9.74c-.67-.27-1.32-.56-1.98-.84a223.81 223.81 0 01-9.05-4.11 225.08 225.08 0 01-72.57-55.95c15.46-56.95 59.24-102.85 115.56-121.12 1.1.68 2.27 1.3 3.41 1.93.67.38 1.34.78 2.02 1.14a99.6 99.6 0 007.27 3.51c1.9.83 3.86 1.54 5.8 2.26.4.13.78.28 1.16.42 10.85 3.84 22.46 6.04 34.6 6.04s23.75-2.2 34.6-6.04l1.14-.42c1.96-.72 3.92-1.43 5.81-2.26a99.6 99.6 0 007.27-3.51c.68-.37 1.35-.76 2.02-1.14 1.14-.64 2.31-1.25 3.43-1.93 56.32 18.27 100.09 64.17 115.56 121.1a225.3 225.3 0 01-72.57 55.96zM152 176c0-48.52 39.48-88 88-88s88 39.48 88 88c0 30.86-16 58.02-40.13 73.74a84.74 84.74 0 01-9.8 5.48c-.4.19-.79.39-1.19.57a90.01 90.01 0 01-73.76 0l-1.2-.57a84.08 84.08 0 01-9.8-5.48C168.02 234.02 152 206.86 152 176zm269.83 194.58A192.76 192.76 0 00309.46 253.2C330.6 234.14 344 206.64 344 176c0-57.34-46.66-104-104-104s-104 46.66-104 104c0 30.64 13.4 58.14 34.55 77.2A192.78 192.78 0 0058.18 370.57 222.68 222.68 0 0116 240C16 116.49 116.49 16 240 16s224 100.49 224 224c0 48.7-15.67 93.8-42.17 130.58z"/>
</svg>