<svg xmlns="http://www.w3.org/2000/svg" viewBox="0 0 512 512">
  <defs/>
  <path fill="#6b7280" d="M511.7 498.8l-12.8-51.2a74.3 74.3 0 00-48.8-53l-93.8-31.2c-23-9.5-33.4-46.4-35.7-60.4a88.7 88.7 0 0031.4-57.7c-.4-3.8.5-7.7 2.6-11 3.3-.8 6-3.2 7.3-6.4 6.1-14.8 10-30.5 11.4-46.6 0-.8 0-1.7-.3-2.5a27.4 27.4 0 00-10.3-15.6v-56.5c0-34.4-10.5-48.5-21.6-56.7C339 33.5 321.3 0 256 0a111.2 111.2 0 00-106.7 106.7v56.5a27.4 27.4 0 00-10.3 15.6c-.2.8-.3 1.7-.3 2.5 1.4 16 5.3 31.8 11.4 46.7a9 9 0 006.4 6c1.2.7 3.4 3.8 3.4 11.3a88.7 88.7 0 0031.6 57.8c-2.3 14-12.7 50.8-35 60.1L62 394.7c-24.3 8-42.7 28-48.8 52.8L.3 498.7A10.7 10.7 0 0010.7 512h490.6a10.7 10.7 0 0010.4-13.2z"/>
</svg>